<svg width="108" height="36" viewBox="0 0 108 36" fill="none" xmlns="http://www.w3.org/2000/svg">
  <rect width="108" height="36" rx="6" fill="black"/>
  <path d="M36 10.5c.9-1.1 1.5-2.6 1.3-4.1-1.3.1-2.9.9-3.8 2-.8.9-1.6 2.4-1.4 3.9 1.5.1 3-.7 3.9-1.8z" fill="white"/>
  <path d="M37.3 12.7c-2.1-.1-3.9 1.2-4.9 1.2-1 0-2.5-1.1-4.2-1.1-2.1 0-4.1 1.2-5.2 3.1-2.2 3.8-.6 9.5 1.6 12.6 1 1.5 2.3 3.2 3.9 3.1 1.6-.1 2.2-1 4.1-1 1.9 0 2.4 1 4.1 1 1.7 0 2.8-1.5 3.8-3 1.2-1.7 1.7-3.4 1.7-3.5-.1 0-3.3-1.3-3.3-5 0-3.1 2.5-4.6 2.6-4.7-1.4-2.1-3.7-2.6-4.2-2.7z" fill="white"/>
  <text x="72" y="23" text-anchor="middle" font-family="-apple-system, Helvetica, Arial, sans-serif" font-size="14" font-weight="500" fill="white">Pay</text>
</svg>
